<mxfile host="app.diagrams.net" modified="2021-03-03T03:34:45.623Z" agent="5.0 (X11; Linux x86_64) AppleWebKit/537.36 (KHTML, like Gecko) Chrome/88.0.4324.182 Safari/537.36" etag="wSss7QNWcheFO4UGsYtw" version="14.4.2" type="github">
  <diagram id="BzeWuSWtje4ORMCNxh40" name="第 1 页">
    <mxGraphModel dx="2370" dy="2671" grid="1" gridSize="10" guides="1" tooltips="1" connect="1" arrows="1" fold="1" page="1" pageScale="1" pageWidth="827" pageHeight="1169" math="0" shadow="0">
      <root>
        <mxCell id="0" />
        <mxCell id="1" parent="0" />
        <mxCell id="fAShZ8duKGNs7Qphul_N-1" value="&lt;b&gt;kusama&lt;/b&gt;" style="shape=process;whiteSpace=wrap;html=1;backgroundOutline=1;size=0.2413793103448276;rotation=90;" vertex="1" parent="1">
          <mxGeometry x="420" y="-25" width="290" height="120" as="geometry" />
        </mxCell>
        <mxCell id="fAShZ8duKGNs7Qphul_N-2" value="&lt;b&gt;alaya&lt;/b&gt;" style="shape=process;whiteSpace=wrap;html=1;backgroundOutline=1;size=0.2413793103448276;rotation=90;" vertex="1" parent="1">
          <mxGeometry x="50" y="-25" width="290" height="120" as="geometry" />
        </mxCell>
        <mxCell id="fAShZ8duKGNs7Qphul_N-3" value="router" style="shape=cylinder3;whiteSpace=wrap;html=1;boundedLbl=1;backgroundOutline=1;size=15;" vertex="1" parent="1">
          <mxGeometry x="360" y="-5" width="60" height="80" as="geometry" />
        </mxCell>
        <mxCell id="fAShZ8duKGNs7Qphul_N-4" value="listener" style="text;html=1;strokeColor=none;fillColor=none;align=center;verticalAlign=middle;whiteSpace=wrap;rounded=0;" vertex="1" parent="1">
          <mxGeometry x="175" y="-90" width="40" height="20" as="geometry" />
        </mxCell>
        <mxCell id="fAShZ8duKGNs7Qphul_N-7" value="listener" style="text;html=1;strokeColor=none;fillColor=none;align=center;verticalAlign=middle;whiteSpace=wrap;rounded=0;" vertex="1" parent="1">
          <mxGeometry x="545" y="-90" width="40" height="20" as="geometry" />
        </mxCell>
        <mxCell id="fAShZ8duKGNs7Qphul_N-8" value="writer" style="text;html=1;strokeColor=none;fillColor=none;align=center;verticalAlign=middle;whiteSpace=wrap;rounded=0;" vertex="1" parent="1">
          <mxGeometry x="175" y="140" width="40" height="20" as="geometry" />
        </mxCell>
        <mxCell id="fAShZ8duKGNs7Qphul_N-10" value="writer" style="text;html=1;strokeColor=none;fillColor=none;align=center;verticalAlign=middle;whiteSpace=wrap;rounded=0;" vertex="1" parent="1">
          <mxGeometry x="545" y="140" width="40" height="20" as="geometry" />
        </mxCell>
        <mxCell id="fAShZ8duKGNs7Qphul_N-12" value="" style="rounded=1;whiteSpace=wrap;html=1;" vertex="1" parent="1">
          <mxGeometry x="730" y="-330" width="1080" height="550" as="geometry" />
        </mxCell>
        <mxCell id="fAShZ8duKGNs7Qphul_N-14" value="" style="rhombus;whiteSpace=wrap;html=1;strokeWidth=2;fillWeight=-1;hachureGap=8;fillStyle=cross-hatch;fillColor=#006600;sketch=1;" vertex="1" parent="1">
          <mxGeometry x="1200" y="-60" width="120" height="60" as="geometry" />
        </mxCell>
        <mxCell id="fAShZ8duKGNs7Qphul_N-15" value="SSS" style="shape=umlActor;verticalLabelPosition=bottom;verticalAlign=top;html=1;outlineConnect=0;fillColor=#e1d5e7;strokeColor=#9673a6;" vertex="1" parent="1">
          <mxGeometry x="1245" y="-170" width="30" height="60" as="geometry" />
        </mxCell>
        <mxCell id="fAShZ8duKGNs7Qphul_N-16" value="AAA" style="shape=umlActor;verticalLabelPosition=bottom;verticalAlign=top;html=1;outlineConnect=0;fillColor=#e1d5e7;strokeColor=#9673a6;" vertex="1" parent="1">
          <mxGeometry x="1130" y="5" width="30" height="60" as="geometry" />
        </mxCell>
        <mxCell id="fAShZ8duKGNs7Qphul_N-17" value="BBB" style="shape=umlActor;verticalLabelPosition=bottom;verticalAlign=top;html=1;outlineConnect=0;fillColor=#e1d5e7;strokeColor=#9673a6;" vertex="1" parent="1">
          <mxGeometry x="1360" y="5" width="30" height="60" as="geometry" />
        </mxCell>
        <mxCell id="fAShZ8duKGNs7Qphul_N-21" value="" style="endArrow=none;dashed=1;html=1;dashPattern=1 3;strokeWidth=2;exitX=0.5;exitY=0;exitDx=0;exitDy=0;exitPerimeter=0;entryX=0;entryY=0.3333333333333333;entryDx=0;entryDy=0;entryPerimeter=0;" edge="1" parent="1" source="fAShZ8duKGNs7Qphul_N-16" target="fAShZ8duKGNs7Qphul_N-15">
          <mxGeometry width="50" height="50" relative="1" as="geometry">
            <mxPoint x="1340" y="90" as="sourcePoint" />
            <mxPoint x="1390" y="40" as="targetPoint" />
          </mxGeometry>
        </mxCell>
        <mxCell id="fAShZ8duKGNs7Qphul_N-22" value="" style="endArrow=none;dashed=1;html=1;dashPattern=1 3;strokeWidth=2;exitX=1;exitY=0.3333333333333333;exitDx=0;exitDy=0;exitPerimeter=0;entryX=0;entryY=0.3333333333333333;entryDx=0;entryDy=0;entryPerimeter=0;" edge="1" parent="1" source="fAShZ8duKGNs7Qphul_N-16" target="fAShZ8duKGNs7Qphul_N-17">
          <mxGeometry width="50" height="50" relative="1" as="geometry">
            <mxPoint x="1154.9999999999995" y="15" as="sourcePoint" />
            <mxPoint x="1254.9999999999995" y="-140" as="targetPoint" />
          </mxGeometry>
        </mxCell>
        <mxCell id="fAShZ8duKGNs7Qphul_N-23" value="" style="endArrow=none;dashed=1;html=1;dashPattern=1 3;strokeWidth=2;exitX=1;exitY=0.3333333333333333;exitDx=0;exitDy=0;exitPerimeter=0;entryX=0.5;entryY=0;entryDx=0;entryDy=0;entryPerimeter=0;" edge="1" parent="1" source="fAShZ8duKGNs7Qphul_N-15" target="fAShZ8duKGNs7Qphul_N-17">
          <mxGeometry width="50" height="50" relative="1" as="geometry">
            <mxPoint x="1169.9999999999995" y="35" as="sourcePoint" />
            <mxPoint x="1389.9999999999995" y="35" as="targetPoint" />
          </mxGeometry>
        </mxCell>
        <mxCell id="fAShZ8duKGNs7Qphul_N-24" value="Eve" style="shape=umlActor;verticalLabelPosition=bottom;verticalAlign=top;html=1;outlineConnect=0;fillColor=#f8cecc;strokeColor=#b85450;" vertex="1" parent="1">
          <mxGeometry x="827" y="-210" width="30" height="60" as="geometry" />
        </mxCell>
        <mxCell id="fAShZ8duKGNs7Qphul_N-25" value="Dave" style="shape=umlActor;verticalLabelPosition=bottom;verticalAlign=top;html=1;outlineConnect=0;fillColor=#f8cecc;strokeColor=#b85450;" vertex="1" parent="1">
          <mxGeometry x="1660" y="-210" width="30" height="60" as="geometry" />
        </mxCell>
        <mxCell id="fAShZ8duKGNs7Qphul_N-26" value="" style="curved=1;endArrow=classic;html=1;exitX=0;exitY=0.3333333333333333;exitDx=0;exitDy=0;exitPerimeter=0;entryX=1;entryY=0;entryDx=0;entryDy=0;edgeStyle=orthogonalEdgeStyle;" edge="1" parent="1" source="fAShZ8duKGNs7Qphul_N-25" target="fAShZ8duKGNs7Qphul_N-14">
          <mxGeometry width="50" height="50" relative="1" as="geometry">
            <mxPoint x="1310" y="-40" as="sourcePoint" />
            <mxPoint x="1360" y="-90" as="targetPoint" />
          </mxGeometry>
        </mxCell>
        <mxCell id="fAShZ8duKGNs7Qphul_N-27" value="System.Batch" style="edgeLabel;html=1;align=center;verticalAlign=middle;resizable=0;points=[];fontStyle=1;fontColor=#FF3399;" vertex="1" connectable="0" parent="fAShZ8duKGNs7Qphul_N-26">
          <mxGeometry x="-0.0495" y="3" relative="1" as="geometry">
            <mxPoint x="38.82" y="6.999999999999999" as="offset" />
          </mxGeometry>
        </mxCell>
        <mxCell id="fAShZ8duKGNs7Qphul_N-30" value="" style="curved=1;endArrow=classic;html=1;exitX=1;exitY=0.3333333333333333;exitDx=0;exitDy=0;exitPerimeter=0;entryX=0;entryY=0;entryDx=0;entryDy=0;edgeStyle=orthogonalEdgeStyle;" edge="1" parent="1" source="fAShZ8duKGNs7Qphul_N-24" target="fAShZ8duKGNs7Qphul_N-14">
          <mxGeometry width="50" height="50" relative="1" as="geometry">
            <mxPoint x="1670" y="-180" as="sourcePoint" />
            <mxPoint x="1300" y="-35" as="targetPoint" />
          </mxGeometry>
        </mxCell>
        <mxCell id="fAShZ8duKGNs7Qphul_N-31" value="System.Batch" style="edgeLabel;html=1;align=center;verticalAlign=middle;resizable=0;points=[];fontStyle=1;fontColor=#FF3399;" vertex="1" connectable="0" parent="fAShZ8duKGNs7Qphul_N-30">
          <mxGeometry x="-0.0495" y="3" relative="1" as="geometry">
            <mxPoint x="38.82" y="6.999999999999999" as="offset" />
          </mxGeometry>
        </mxCell>
        <mxCell id="fAShZ8duKGNs7Qphul_N-32" value="" style="shape=link;html=1;fontColor=#FF3399;entryX=0.5;entryY=0.5;entryDx=0;entryDy=0;entryPerimeter=0;exitX=0.5;exitY=0;exitDx=0;exitDy=0;fillColor=#fff2cc;strokeColor=#d6b656;" edge="1" parent="1" source="fAShZ8duKGNs7Qphul_N-1" target="fAShZ8duKGNs7Qphul_N-16">
          <mxGeometry width="100" relative="1" as="geometry">
            <mxPoint x="850" y="270" as="sourcePoint" />
            <mxPoint x="950" y="270" as="targetPoint" />
          </mxGeometry>
        </mxCell>
        <mxCell id="fAShZ8duKGNs7Qphul_N-33" value="&lt;b&gt;kusama&lt;/b&gt;" style="shape=process;whiteSpace=wrap;html=1;backgroundOutline=1;size=0.2413793103448276;rotation=90;" vertex="1" parent="1">
          <mxGeometry x="420" y="435" width="290" height="120" as="geometry" />
        </mxCell>
        <mxCell id="fAShZ8duKGNs7Qphul_N-34" value="&lt;b&gt;alaya&lt;/b&gt;" style="shape=process;whiteSpace=wrap;html=1;backgroundOutline=1;size=0.2413793103448276;rotation=90;" vertex="1" parent="1">
          <mxGeometry x="50" y="435" width="290" height="120" as="geometry" />
        </mxCell>
        <mxCell id="fAShZ8duKGNs7Qphul_N-35" value="router" style="shape=cylinder3;whiteSpace=wrap;html=1;boundedLbl=1;backgroundOutline=1;size=15;" vertex="1" parent="1">
          <mxGeometry x="360" y="455" width="60" height="80" as="geometry" />
        </mxCell>
        <mxCell id="fAShZ8duKGNs7Qphul_N-36" value="listener" style="text;html=1;strokeColor=none;fillColor=none;align=center;verticalAlign=middle;whiteSpace=wrap;rounded=0;" vertex="1" parent="1">
          <mxGeometry x="175" y="370" width="40" height="20" as="geometry" />
        </mxCell>
        <mxCell id="fAShZ8duKGNs7Qphul_N-37" value="listener" style="text;html=1;strokeColor=none;fillColor=none;align=center;verticalAlign=middle;whiteSpace=wrap;rounded=0;" vertex="1" parent="1">
          <mxGeometry x="545" y="370" width="40" height="20" as="geometry" />
        </mxCell>
        <mxCell id="fAShZ8duKGNs7Qphul_N-38" value="writer" style="text;html=1;strokeColor=none;fillColor=none;align=center;verticalAlign=middle;whiteSpace=wrap;rounded=0;" vertex="1" parent="1">
          <mxGeometry x="175" y="600" width="40" height="20" as="geometry" />
        </mxCell>
        <mxCell id="fAShZ8duKGNs7Qphul_N-39" value="writer" style="text;html=1;strokeColor=none;fillColor=none;align=center;verticalAlign=middle;whiteSpace=wrap;rounded=0;" vertex="1" parent="1">
          <mxGeometry x="545" y="600" width="40" height="20" as="geometry" />
        </mxCell>
        <mxCell id="fAShZ8duKGNs7Qphul_N-40" value="&lt;b&gt;kusama&lt;/b&gt;" style="shape=process;whiteSpace=wrap;html=1;backgroundOutline=1;size=0.2413793103448276;rotation=90;" vertex="1" parent="1">
          <mxGeometry x="420" y="-475" width="290" height="120" as="geometry" />
        </mxCell>
        <mxCell id="fAShZ8duKGNs7Qphul_N-41" value="&lt;b&gt;alaya&lt;/b&gt;" style="shape=process;whiteSpace=wrap;html=1;backgroundOutline=1;size=0.2413793103448276;rotation=90;" vertex="1" parent="1">
          <mxGeometry x="50" y="-475" width="290" height="120" as="geometry" />
        </mxCell>
        <mxCell id="fAShZ8duKGNs7Qphul_N-42" value="router" style="shape=cylinder3;whiteSpace=wrap;html=1;boundedLbl=1;backgroundOutline=1;size=15;" vertex="1" parent="1">
          <mxGeometry x="360" y="-455" width="60" height="80" as="geometry" />
        </mxCell>
        <mxCell id="fAShZ8duKGNs7Qphul_N-43" value="listener" style="text;html=1;strokeColor=none;fillColor=none;align=center;verticalAlign=middle;whiteSpace=wrap;rounded=0;" vertex="1" parent="1">
          <mxGeometry x="175" y="-540" width="40" height="20" as="geometry" />
        </mxCell>
        <mxCell id="fAShZ8duKGNs7Qphul_N-44" value="listener" style="text;html=1;strokeColor=none;fillColor=none;align=center;verticalAlign=middle;whiteSpace=wrap;rounded=0;" vertex="1" parent="1">
          <mxGeometry x="545" y="-540" width="40" height="20" as="geometry" />
        </mxCell>
        <mxCell id="fAShZ8duKGNs7Qphul_N-45" value="writer" style="text;html=1;strokeColor=none;fillColor=none;align=center;verticalAlign=middle;whiteSpace=wrap;rounded=0;" vertex="1" parent="1">
          <mxGeometry x="175" y="-310" width="40" height="20" as="geometry" />
        </mxCell>
        <mxCell id="fAShZ8duKGNs7Qphul_N-46" value="writer" style="text;html=1;strokeColor=none;fillColor=none;align=center;verticalAlign=middle;whiteSpace=wrap;rounded=0;" vertex="1" parent="1">
          <mxGeometry x="545" y="-310" width="40" height="20" as="geometry" />
        </mxCell>
        <mxCell id="fAShZ8duKGNs7Qphul_N-48" value="" style="shape=link;html=1;fontColor=#FF3399;exitX=0.5;exitY=0;exitDx=0;exitDy=0;entryX=0.5;entryY=0.5;entryDx=0;entryDy=0;entryPerimeter=0;edgeStyle=orthogonalEdgeStyle;fillColor=#fff2cc;strokeColor=#d6b656;" edge="1" parent="1" source="fAShZ8duKGNs7Qphul_N-33" target="fAShZ8duKGNs7Qphul_N-17">
          <mxGeometry width="100" relative="1" as="geometry">
            <mxPoint x="790" y="70" as="sourcePoint" />
            <mxPoint x="890" y="70" as="targetPoint" />
          </mxGeometry>
        </mxCell>
        <mxCell id="fAShZ8duKGNs7Qphul_N-49" value="" style="shape=link;html=1;fontColor=#FF3399;exitX=0.5;exitY=0;exitDx=0;exitDy=0;entryX=0.5;entryY=0;entryDx=0;entryDy=0;entryPerimeter=0;edgeStyle=orthogonalEdgeStyle;fillColor=#fff2cc;strokeColor=#d6b656;" edge="1" parent="1" source="fAShZ8duKGNs7Qphul_N-40" target="fAShZ8duKGNs7Qphul_N-15">
          <mxGeometry width="100" relative="1" as="geometry">
            <mxPoint x="920" y="-170" as="sourcePoint" />
            <mxPoint x="1020" y="-170" as="targetPoint" />
          </mxGeometry>
        </mxCell>
      </root>
    </mxGraphModel>
  </diagram>
</mxfile>
